<svg xmlns="http://www.w3.org/2000/svg" viewBox="0 0 32 32" width="32" height="32">
  <defs>
    <linearGradient id="event1" x1="0%" y1="0%" x2="100%" y2="100%">
      <stop offset="0%" stop-color="#bcf8d1"/>
      <stop offset="100%" stop-color="#4ade80"/>
    </linearGradient>
    <linearGradient id="event2" x1="0%" y1="0%" x2="100%" y2="100%">
      <stop offset="0%" stop-color="#16a34a"/>
      <stop offset="100%" stop-color="#14532d"/>
    </linearGradient>
  </defs>
  
  <!-- Main shape resembling a ticket or event badge -->
  <path fill="url(#event1)" d="M4 6 L28 6 Q30 6 30 8 L30 24 Q30 26 28 26 L4 26 Q2 26 2 24 L2 8 Q2 6 4 6 Z"/>
  
  <!-- Decorative notches like a ticket -->
  <circle cx="2" cy="16" r="2.5" fill="#fff"/>
  <circle cx="30" cy="16" r="2.5" fill="#fff"/>
  
  <!-- U letter -->
  <path fill="url(#event2)" d="M10 10 L10 19 Q10 22 13 22 L19 22 Q22 22 22 19 L22 10 L19 10 L19 19 Q19 20 19 20 L13 20 Q13 20 13 19 L13 10 Z"/>
</svg>